<svg width="167" height="62" viewBox="0 0 167 62" fill="none" xmlns="http://www.w3.org/2000/svg">
<mask id="path-1-inside-1_3420_550" fill="white">
<path d="M27.16 60H14.56L-2.43187e-05 19.96H10.4L20.88 48.76L31.32 19.96H41.72L27.16 60ZM63.6719 61.04C59.9919 61.04 56.6319 60.0933 53.5919 58.2C50.5785 56.3067 48.1652 53.7733 46.3519 50.6C44.5652 47.4 43.6719 43.8667 43.6719 40C43.6719 37.0667 44.1919 34.3333 45.2319 31.8C46.2719 29.24 47.6985 27 49.5119 25.08C51.3519 23.1333 53.4852 21.6133 55.9119 20.52C58.3385 19.4267 60.9252 18.88 63.6719 18.88C67.3519 18.88 70.6985 19.8267 73.7119 21.72C76.7519 23.6133 79.1652 26.16 80.9519 29.36C82.7652 32.56 83.6719 36.1067 83.6719 40C83.6719 42.9067 83.1519 45.6267 82.1119 48.16C81.0719 50.6933 79.6319 52.9333 77.7919 54.88C75.9785 56.8 73.8585 58.3067 71.4319 59.4C69.0319 60.4933 66.4452 61.04 63.6719 61.04ZM63.6719 51.28C65.6185 51.28 67.3652 50.76 68.9119 49.72C70.4585 48.68 71.6719 47.3067 72.5519 45.6C73.4585 43.8933 73.9119 42.0267 73.9119 40C73.9119 37.92 73.4452 36.0267 72.5119 34.32C71.6052 32.5867 70.3652 31.2133 68.7919 30.2C67.2452 29.16 65.5385 28.64 63.6719 28.64C61.7519 28.64 60.0185 29.16 58.4719 30.2C56.9252 31.24 55.6985 32.6267 54.7919 34.36C53.8852 36.0933 53.4319 37.9733 53.4319 40C53.4319 42.1067 53.8985 44.0133 54.8319 45.72C55.7652 47.4267 57.0052 48.7867 58.5519 49.8C60.1252 50.7867 61.8319 51.28 63.6719 51.28ZM89.0406 20H98.8006V60H89.0406V20ZM94.0006 14.84C92.5606 14.84 91.3473 14.3733 90.3606 13.44C89.3739 12.48 88.8806 11.28 88.8806 9.84C88.8806 8.42666 89.3739 7.24 90.3606 6.28C91.3473 5.32 92.5473 4.84 93.9606 4.84C95.3739 4.84 96.5606 5.32 97.5206 6.28C98.5073 7.24 99.0006 8.42666 99.0006 9.84C99.0006 11.28 98.5206 12.48 97.5606 13.44C96.6006 14.3733 95.4139 14.84 94.0006 14.84ZM108.416 20H118.176V60H108.416V20ZM113.376 14.84C111.936 14.84 110.722 14.3733 109.736 13.44C108.749 12.48 108.256 11.28 108.256 9.84C108.256 8.42666 108.749 7.24 109.736 6.28C110.722 5.32 111.922 4.84 113.336 4.84C114.749 4.84 115.936 5.32 116.896 6.28C117.882 7.24 118.376 8.42666 118.376 9.84C118.376 11.28 117.896 12.48 116.936 13.44C115.976 14.3733 114.789 14.84 113.376 14.84ZM157.093 -4.76837e-06H166.853V60H157.093V55C155.813 56.7867 154.2 58.24 152.253 59.36C150.306 60.48 148.053 61.04 145.493 61.04C142.586 61.04 139.866 60.4933 137.333 59.4C134.8 58.3067 132.56 56.8 130.613 54.88C128.693 52.9333 127.186 50.6933 126.093 48.16C125 45.6267 124.453 42.9067 124.453 40C124.453 37.0933 125 34.3733 126.093 31.84C127.186 29.3067 128.693 27.08 130.613 25.16C132.56 23.2133 134.8 21.6933 137.333 20.6C139.866 19.5067 142.586 18.96 145.493 18.96C148.053 18.96 150.306 19.52 152.253 20.64C154.2 21.7333 155.813 23.1867 157.093 25V-4.76837e-06ZM145.613 51.64C147.693 51.64 149.533 51.12 151.133 50.08C152.733 49.04 153.986 47.64 154.893 45.88C155.8 44.0933 156.253 42.1333 156.253 40C156.253 37.84 155.8 35.88 154.893 34.12C153.986 32.3333 152.72 30.92 151.093 29.88C149.493 28.84 147.666 28.32 145.613 28.32C143.56 28.32 141.68 28.8533 139.973 29.92C138.293 30.96 136.946 32.36 135.933 34.12C134.946 35.88 134.453 37.84 134.453 40C134.453 42.16 134.96 44.12 135.973 45.88C136.986 47.64 138.333 49.04 140.013 50.08C141.72 51.12 143.586 51.64 145.613 51.64Z"/>
</mask>
<g filter="url(#filter0_i_3420_550)">
<path d="M27.16 60H14.56L-2.43187e-05 19.96H10.4L20.88 48.76L31.32 19.96H41.72L27.16 60ZM63.6719 61.04C59.9919 61.04 56.6319 60.0933 53.5919 58.2C50.5785 56.3067 48.1652 53.7733 46.3519 50.6C44.5652 47.4 43.6719 43.8667 43.6719 40C43.6719 37.0667 44.1919 34.3333 45.2319 31.8C46.2719 29.24 47.6985 27 49.5119 25.08C51.3519 23.1333 53.4852 21.6133 55.9119 20.52C58.3385 19.4267 60.9252 18.88 63.6719 18.88C67.3519 18.88 70.6985 19.8267 73.7119 21.72C76.7519 23.6133 79.1652 26.16 80.9519 29.36C82.7652 32.56 83.6719 36.1067 83.6719 40C83.6719 42.9067 83.1519 45.6267 82.1119 48.16C81.0719 50.6933 79.6319 52.9333 77.7919 54.88C75.9785 56.8 73.8585 58.3067 71.4319 59.4C69.0319 60.4933 66.4452 61.04 63.6719 61.04ZM63.6719 51.28C65.6185 51.28 67.3652 50.76 68.9119 49.72C70.4585 48.68 71.6719 47.3067 72.5519 45.6C73.4585 43.8933 73.9119 42.0267 73.9119 40C73.9119 37.92 73.4452 36.0267 72.5119 34.32C71.6052 32.5867 70.3652 31.2133 68.7919 30.2C67.2452 29.16 65.5385 28.64 63.6719 28.64C61.7519 28.64 60.0185 29.16 58.4719 30.2C56.9252 31.24 55.6985 32.6267 54.7919 34.36C53.8852 36.0933 53.4319 37.9733 53.4319 40C53.4319 42.1067 53.8985 44.0133 54.8319 45.72C55.7652 47.4267 57.0052 48.7867 58.5519 49.8C60.1252 50.7867 61.8319 51.28 63.6719 51.28ZM89.0406 20H98.8006V60H89.0406V20ZM94.0006 14.84C92.5606 14.84 91.3473 14.3733 90.3606 13.44C89.3739 12.48 88.8806 11.28 88.8806 9.84C88.8806 8.42666 89.3739 7.24 90.3606 6.28C91.3473 5.32 92.5473 4.84 93.9606 4.84C95.3739 4.84 96.5606 5.32 97.5206 6.28C98.5073 7.24 99.0006 8.42666 99.0006 9.84C99.0006 11.28 98.5206 12.48 97.5606 13.44C96.6006 14.3733 95.4139 14.84 94.0006 14.84ZM108.416 20H118.176V60H108.416V20ZM113.376 14.84C111.936 14.84 110.722 14.3733 109.736 13.44C108.749 12.48 108.256 11.28 108.256 9.84C108.256 8.42666 108.749 7.24 109.736 6.28C110.722 5.32 111.922 4.84 113.336 4.84C114.749 4.84 115.936 5.32 116.896 6.28C117.882 7.24 118.376 8.42666 118.376 9.84C118.376 11.28 117.896 12.48 116.936 13.44C115.976 14.3733 114.789 14.84 113.376 14.84ZM157.093 -4.76837e-06H166.853V60H157.093V55C155.813 56.7867 154.2 58.24 152.253 59.36C150.306 60.48 148.053 61.04 145.493 61.04C142.586 61.04 139.866 60.4933 137.333 59.4C134.8 58.3067 132.56 56.8 130.613 54.88C128.693 52.9333 127.186 50.6933 126.093 48.16C125 45.6267 124.453 42.9067 124.453 40C124.453 37.0933 125 34.3733 126.093 31.84C127.186 29.3067 128.693 27.08 130.613 25.16C132.56 23.2133 134.8 21.6933 137.333 20.6C139.866 19.5067 142.586 18.96 145.493 18.96C148.053 18.96 150.306 19.52 152.253 20.64C154.2 21.7333 155.813 23.1867 157.093 25V-4.76837e-06ZM145.613 51.64C147.693 51.64 149.533 51.12 151.133 50.08C152.733 49.04 153.986 47.64 154.893 45.88C155.8 44.0933 156.253 42.1333 156.253 40C156.253 37.84 155.8 35.88 154.893 34.12C153.986 32.3333 152.72 30.92 151.093 29.88C149.493 28.84 147.666 28.32 145.613 28.32C143.56 28.32 141.68 28.8533 139.973 29.92C138.293 30.96 136.946 32.36 135.933 34.12C134.946 35.88 134.453 37.84 134.453 40C134.453 42.16 134.96 44.12 135.973 45.88C136.986 47.64 138.333 49.04 140.013 50.08C141.72 51.12 143.586 51.64 145.613 51.64Z" fill="white"/>
</g>
<path d="M27.16 60V62.6H28.9811L29.6034 60.8885L27.16 60ZM14.56 60L12.1165 60.8885L12.7389 62.6H14.56V60ZM-2.43187e-05 19.96V17.36H-3.71204L-2.44349 20.8485L-2.43187e-05 19.96ZM10.4 19.96L12.8432 19.0709L12.2207 17.36H10.4V19.96ZM20.88 48.76L18.4367 49.6491L20.8846 56.3762L23.3243 49.6461L20.88 48.76ZM31.32 19.96V17.36H29.4969L28.8756 19.0739L31.32 19.96ZM41.72 19.96L44.1634 20.8485L45.432 17.36H41.72V19.96ZM27.16 60V57.4H14.56V60V62.6H27.16V60ZM14.56 60L17.0034 59.1115L2.44344 19.0715L-2.43187e-05 19.96L-2.44349 20.8485L12.1165 60.8885L14.56 60ZM-2.43187e-05 19.96V22.56H10.4V19.96V17.36H-2.43187e-05V19.96ZM10.4 19.96L7.95671 20.8491L18.4367 49.6491L20.88 48.76L23.3232 47.8709L12.8432 19.0709L10.4 19.96ZM20.88 48.76L23.3243 49.6461L33.7643 20.8461L31.32 19.96L28.8756 19.0739L18.4356 47.8739L20.88 48.76ZM31.32 19.96V22.56H41.72V19.96V17.36H31.32V19.96ZM41.72 19.96L39.2765 19.0715L24.7165 59.1115L27.16 60L29.6034 60.8885L44.1634 20.8485L41.72 19.96ZM53.5919 58.2L52.2086 60.4015L52.2173 60.407L53.5919 58.2ZM46.3519 50.6L44.0817 51.8675L44.088 51.8788L44.0944 51.89L46.3519 50.6ZM45.2318 31.8L47.6371 32.7874L47.6407 32.7786L45.2318 31.8ZM49.5119 25.08L47.6223 23.294L47.6216 23.2948L49.5119 25.08ZM55.9118 20.52L54.8438 18.1495H54.8438L55.9118 20.52ZM73.7119 21.72L72.3286 23.9215L72.3373 23.927L73.7119 21.72ZM80.9519 29.36L78.6817 30.6275L78.6857 30.6347L78.6898 30.6418L80.9519 29.36ZM82.1118 48.16L79.7066 47.1726V47.1726L82.1118 48.16ZM77.7919 54.88L75.9023 53.094L75.9016 53.0948L77.7919 54.88ZM71.4319 59.4L70.3638 57.0295L70.354 57.034L71.4319 59.4ZM68.9118 49.72L70.3626 51.8776V51.8776L68.9118 49.72ZM72.5518 45.6L70.2558 44.3802L70.2483 44.3943L70.241 44.4084L72.5518 45.6ZM72.5119 34.32L70.208 35.5251L70.2191 35.5464L70.2307 35.5675L72.5119 34.32ZM68.7919 30.2L67.3411 32.3576L67.3624 32.3719L67.384 32.3859L68.7919 30.2ZM58.4719 30.2L57.0211 28.0424V28.0424L58.4719 30.2ZM54.7919 34.36L57.0957 35.5651V35.5651L54.7919 34.36ZM58.5518 49.8L57.127 51.9748L57.1486 51.989L57.1705 52.0027L58.5518 49.8ZM63.6719 61.04V58.44C60.4636 58.44 57.5821 57.6221 54.9664 55.993L53.5919 58.2L52.2173 60.407C55.6816 62.5645 59.5201 63.64 63.6719 63.64V61.04ZM53.5919 58.2L54.9751 55.9985C52.3337 54.3388 50.2165 52.1227 48.6093 49.31L46.3519 50.6L44.0944 51.89C46.1138 55.424 48.8234 58.2745 52.2086 60.4015L53.5919 58.2ZM46.3519 50.6L48.622 49.3325C47.0636 46.5414 46.2719 43.4482 46.2719 40H43.6719H41.0718C41.0718 44.2851 42.0667 48.2586 44.0817 51.8675L46.3519 50.6ZM43.6719 40H46.2719C46.2719 37.381 46.7346 34.9857 47.6371 32.7874L45.2318 31.8L42.8266 30.8126C41.6491 33.681 41.0718 36.7523 41.0718 40H43.6719ZM45.2318 31.8L47.6407 32.7786C48.565 30.5033 49.8203 28.5401 51.4021 26.8652L49.5119 25.08L47.6216 23.2948C45.5767 25.4599 43.9787 27.9767 42.823 30.8214L45.2318 31.8ZM49.5119 25.08L51.4014 26.866C53.0098 25.1643 54.8646 23.8436 56.9799 22.8905L55.9118 20.52L54.8438 18.1495C52.1058 19.3831 49.6939 21.1024 47.6223 23.294L49.5119 25.08ZM55.9118 20.52L56.9799 22.8905C59.06 21.9533 61.2813 21.48 63.6719 21.48V18.88V16.28C60.569 16.28 57.6171 16.9 54.8438 18.1495L55.9118 20.52ZM63.6719 18.88V21.48C66.88 21.48 69.7443 22.2977 72.3286 23.9215L73.7119 21.72L75.0951 19.5185C71.6528 17.3556 67.8237 16.28 63.6719 16.28V18.88ZM73.7119 21.72L72.3373 23.927C74.9952 25.5823 77.1041 27.802 78.6817 30.6275L80.9519 29.36L83.222 28.0925C81.2262 24.518 78.5085 21.6444 75.0864 19.513L73.7119 21.72ZM80.9519 29.36L78.6898 30.6418C80.2686 33.4279 81.0719 36.5287 81.0719 40H83.6719H86.2719C86.2719 35.6846 85.2618 31.6921 83.2139 28.0782L80.9519 29.36ZM83.6719 40H81.0719C81.0719 42.5891 80.6103 44.9715 79.7066 47.1726L82.1118 48.16L84.5171 49.1474C85.6935 46.2818 86.2719 43.2243 86.2719 40H83.6719ZM82.1118 48.16L79.7066 47.1726C78.7852 49.417 77.5179 51.3848 75.9023 53.094L77.7919 54.88L79.6814 56.666C81.7458 54.4818 83.3585 51.9696 84.5171 49.1474L82.1118 48.16ZM77.7919 54.88L75.9016 53.0948C74.3234 54.7659 72.4833 56.0746 70.3638 57.0295L71.4319 59.4L72.4999 61.7705C75.2337 60.5388 77.6337 58.8341 79.6821 56.6652L77.7919 54.88ZM71.4319 59.4L70.354 57.034C68.3098 57.9652 66.0929 58.44 63.6719 58.44V61.04V63.64C66.7975 63.64 69.7539 63.0215 72.5097 61.7661L71.4319 59.4ZM63.6719 51.28V53.88C66.111 53.88 68.3674 53.2192 70.3626 51.8776L68.9118 49.72L67.4611 47.5624C66.363 48.3008 65.126 48.68 63.6719 48.68V51.28ZM68.9118 49.72L70.3626 51.8776C72.2841 50.5856 73.7883 48.8753 74.8627 46.7916L72.5518 45.6L70.241 44.4084C69.5554 45.7381 68.6329 46.7744 67.4611 47.5624L68.9118 49.72ZM72.5518 45.6L74.848 46.8198C75.964 44.7191 76.5119 42.4306 76.5119 40H73.9118H71.3119C71.3119 41.6227 70.9531 43.0676 70.2558 44.3802L72.5518 45.6ZM73.9118 40H76.5119C76.5119 37.5151 75.95 35.1881 74.793 33.0725L72.5119 34.32L70.2307 35.5675C70.9404 36.8652 71.3119 38.3249 71.3119 40H73.9118ZM72.5119 34.32L74.8157 33.1149C73.7102 31.0014 72.169 29.2825 70.1997 28.0141L68.7919 30.2L67.384 32.3859C68.5613 33.1441 69.5002 34.172 70.208 35.5251L72.5119 34.32ZM68.7919 30.2L70.2426 28.0424C68.2664 26.7136 66.0545 26.04 63.6719 26.04V28.64V31.24C65.0225 31.24 66.224 31.6064 67.3411 32.3576L68.7919 30.2ZM63.6719 28.64V26.04C61.2516 26.04 59.0101 26.7049 57.0211 28.0424L58.4719 30.2L59.9226 32.3576C61.0269 31.6151 62.2521 31.24 63.6719 31.24V28.64ZM58.4719 30.2L57.0211 28.0424C55.0972 29.336 53.585 31.0577 52.488 33.1549L54.7919 34.36L57.0957 35.5651C57.812 34.1957 58.7532 33.144 59.9226 32.3576L58.4719 30.2ZM54.7919 34.36L52.488 33.1549C51.3797 35.2738 50.8319 37.5693 50.8319 40H53.4319H56.0319C56.0319 38.3774 56.3907 36.9129 57.0957 35.5651L54.7919 34.36ZM53.4319 40H50.8319C50.8319 42.5055 51.391 44.847 52.5507 46.9675L54.8319 45.72L57.113 44.4725C56.406 43.1797 56.0319 41.7078 56.0319 40H53.4319ZM54.8319 45.72L52.5507 46.9675C53.6779 49.0288 55.2043 50.7151 57.127 51.9748L58.5518 49.8L59.9767 47.6252C58.806 46.8582 57.8524 45.8245 57.113 44.4725L54.8319 45.72ZM58.5518 49.8L57.1705 52.0027C59.1537 53.2464 61.3384 53.88 63.6719 53.88V51.28V48.68C62.3253 48.68 61.0966 48.3269 59.9332 47.5973L58.5518 49.8ZM89.0406 20V17.4H86.4406V20H89.0406ZM98.8006 20H101.401V17.4H98.8006V20ZM98.8006 60V62.6H101.401V60H98.8006ZM89.0406 60H86.4406V62.6H89.0406V60ZM90.3606 13.44L88.5475 15.3035L88.5606 15.3162L88.5739 15.3288L90.3606 13.44ZM90.3606 6.28L92.1737 8.14349V8.14349L90.3606 6.28ZM97.5206 6.28L95.6821 8.11848L95.6947 8.13107L95.7075 8.14349L97.5206 6.28ZM97.5606 13.44L99.373 15.3042L99.3861 15.2914L99.3991 15.2785L97.5606 13.44ZM89.0406 20V22.6H98.8006V20V17.4H89.0406V20ZM98.8006 20H96.2006V60H98.8006H101.401V20H98.8006ZM98.8006 60V57.4H89.0406V60V62.6H98.8006V60ZM89.0406 60H91.6406V20H89.0406H86.4406V60H89.0406ZM94.0006 14.84V12.24C93.1811 12.24 92.6201 11.9984 92.1473 11.5512L90.3606 13.44L88.5739 15.3288C90.0744 16.7483 91.9401 17.44 94.0006 17.44V14.84ZM90.3606 13.44L92.1737 11.5765C91.7155 11.1306 91.4806 10.6142 91.4806 9.84H88.8806H86.2806C86.2806 11.9458 87.0324 13.8294 88.5475 15.3035L90.3606 13.44ZM88.8806 9.84H91.4806C91.4806 9.10754 91.705 8.59952 92.1737 8.14349L90.3606 6.28L88.5475 4.41651C87.0428 5.88047 86.2806 7.74579 86.2806 9.84H88.8806ZM90.3606 6.28L92.1737 8.14349C92.6608 7.66961 93.2044 7.44 93.9606 7.44V4.84V2.24C91.8902 2.24 90.0338 2.97039 88.5475 4.41651L90.3606 6.28ZM93.9606 4.84V7.44C94.7159 7.44 95.2316 7.66793 95.6821 8.11848L97.5206 6.28L99.3591 4.44152C97.8896 2.97206 96.032 2.24 93.9606 2.24V4.84ZM97.5206 6.28L95.7075 8.14349C96.1762 8.59952 96.4006 9.10754 96.4006 9.84H99.0006H101.601C101.601 7.74579 100.838 5.88047 99.3337 4.41651L97.5206 6.28ZM99.0006 9.84H96.4006C96.4006 10.6369 96.1627 11.161 95.7221 11.6015L97.5606 13.44L99.3991 15.2785C100.879 13.799 101.601 11.9231 101.601 9.84H99.0006ZM97.5606 13.44L95.7482 11.5758C95.3026 12.0091 94.7787 12.24 94.0006 12.24V14.84V17.44C96.0492 17.44 97.8986 16.7376 99.373 15.3042L97.5606 13.44ZM108.416 20V17.4H105.816V20H108.416ZM118.176 20H120.776V17.4H118.176V20ZM118.176 60V62.6H120.776V60H118.176ZM108.416 60H105.816V62.6H108.416V60ZM109.736 13.44L107.922 15.3035L107.936 15.3162L107.949 15.3288L109.736 13.44ZM109.736 6.28L111.549 8.14349V8.14349L109.736 6.28ZM116.896 6.28L115.057 8.11848L115.07 8.13107L115.082 8.14349L116.896 6.28ZM116.936 13.44L118.748 15.3042L118.761 15.2914L118.774 15.2785L116.936 13.44ZM108.416 20V22.6H118.176V20V17.4H108.416V20ZM118.176 20H115.576V60H118.176H120.776V20H118.176ZM118.176 60V57.4H108.416V60V62.6H118.176V60ZM108.416 60H111.016V20H108.416H105.816V60H108.416ZM113.376 14.84V12.24C112.556 12.24 111.995 11.9984 111.522 11.5512L109.736 13.44L107.949 15.3288C109.449 16.7483 111.315 17.44 113.376 17.44V14.84ZM109.736 13.44L111.549 11.5765C111.09 11.1306 110.856 10.6142 110.856 9.84H108.256H105.656C105.656 11.9458 106.407 13.8294 107.922 15.3035L109.736 13.44ZM108.256 9.84H110.856C110.856 9.10754 111.08 8.59952 111.549 8.14349L109.736 6.28L107.922 4.41651C106.418 5.88047 105.656 7.74579 105.656 9.84H108.256ZM109.736 6.28L111.549 8.14349C112.036 7.66961 112.579 7.44 113.336 7.44V4.84V2.24C111.265 2.24 109.409 2.97039 107.922 4.41651L109.736 6.28ZM113.336 4.84V7.44C114.091 7.44 114.607 7.66793 115.057 8.11848L116.896 6.28L118.734 4.44152C117.265 2.97206 115.407 2.24 113.336 2.24V4.84ZM116.896 6.28L115.082 8.14349C115.551 8.59952 115.776 9.10754 115.776 9.84H118.376H120.976C120.976 7.74579 120.213 5.88047 118.709 4.41651L116.896 6.28ZM118.376 9.84H115.776C115.776 10.6369 115.538 11.161 115.097 11.6015L116.936 13.44L118.774 15.2785C120.254 13.799 120.976 11.9231 120.976 9.84H118.376ZM116.936 13.44L115.123 11.5758C114.678 12.0091 114.154 12.24 113.376 12.24V14.84V17.44C115.424 17.44 117.274 16.7376 118.748 15.3042L116.936 13.44ZM157.093 -3.8147e-06V-2.60001H154.493V-3.8147e-06H157.093ZM166.853 -3.8147e-06H169.453V-2.60001H166.853V-3.8147e-06ZM166.853 60V62.6H169.453V60H166.853ZM157.093 60H154.493V62.6H157.093V60ZM157.093 55H159.693V46.9064L154.98 53.4858L157.093 55ZM137.333 59.4L138.363 57.0128V57.0128L137.333 59.4ZM130.613 54.88L128.762 56.7058L128.775 56.7185L128.787 56.7311L130.613 54.88ZM126.093 48.16L123.706 49.1903V49.1903L126.093 48.16ZM126.093 31.84L123.706 30.8097V30.8097L126.093 31.84ZM130.613 25.16L132.452 26.9985V26.9985L130.613 25.16ZM137.333 20.6L136.303 18.2128V18.2128L137.333 20.6ZM152.253 20.64L150.956 22.8936L150.968 22.9003L150.98 22.9069L152.253 20.64ZM157.093 25L154.969 26.4994L159.693 33.1919V25H157.093ZM151.133 50.08L149.716 47.9V47.9L151.133 50.08ZM154.893 45.88L157.204 47.0707L157.208 47.0636L157.212 47.0566L154.893 45.88ZM154.893 34.12L152.575 35.2966L152.578 35.3036L152.582 35.3107L154.893 34.12ZM151.093 29.88L149.676 32.06L149.684 32.0653L149.693 32.0706L151.093 29.88ZM139.973 29.92L141.342 32.1307L141.351 32.1248L139.973 29.92ZM135.933 34.12L133.68 32.8227L133.672 32.8356L133.665 32.8486L135.933 34.12ZM135.973 45.88L138.226 44.5827V44.5827L135.973 45.88ZM140.013 50.08L138.645 52.2907L138.652 52.2955L138.66 52.3002L140.013 50.08ZM157.093 -3.8147e-06V2.59999H166.853V-3.8147e-06V-2.60001H157.093V-3.8147e-06ZM166.853 -3.8147e-06H164.253V60H166.853H169.453V-3.8147e-06H166.853ZM166.853 60V57.4H157.093V60V62.6H166.853V60ZM157.093 60H159.693V55H157.093H154.493V60H157.093ZM157.093 55L154.98 53.4858C153.921 54.9637 152.588 56.1675 150.956 57.1064L152.253 59.36L153.55 61.6136C155.811 60.3125 157.706 58.6096 159.207 56.5142L157.093 55ZM152.253 59.36L150.956 57.1064C149.457 57.9692 147.663 58.44 145.493 58.44V61.04V63.64C148.443 63.64 151.156 62.9908 153.55 61.6136L152.253 59.36ZM145.493 61.04V58.44C142.921 58.44 140.554 57.9583 138.363 57.0128L137.333 59.4L136.303 61.7872C139.179 63.0284 142.251 63.64 145.493 63.64V61.04ZM137.333 59.4L138.363 57.0128C136.123 56.0461 134.154 54.7203 132.439 53.0289L130.613 54.88L128.787 56.7311C130.966 58.8797 133.476 60.5672 136.303 61.7872L137.333 59.4ZM130.613 54.88L132.464 53.0542C130.773 51.3393 129.447 49.3697 128.48 47.1297L126.093 48.16L123.706 49.1903C124.926 52.0169 126.613 54.5273 128.762 56.7058L130.613 54.88ZM126.093 48.16L128.48 47.1297C127.535 44.939 127.053 42.5716 127.053 40H124.453H121.853C121.853 43.2417 122.465 46.3143 123.706 49.1903L126.093 48.16ZM124.453 40H127.053C127.053 37.4284 127.535 35.061 128.48 32.8703L126.093 31.84L123.706 30.8097C122.465 33.6857 121.853 36.7583 121.853 40H124.453ZM126.093 31.84L128.48 32.8703C129.446 30.6336 130.768 28.6823 132.452 26.9985L130.613 25.16L128.775 23.3215C126.618 25.4777 124.927 27.9797 123.706 30.8097L126.093 31.84ZM130.613 25.16L132.452 26.9985C134.165 25.2847 136.131 23.9506 138.363 22.9872L137.333 20.6L136.303 18.2128C133.469 19.4361 130.954 21.142 128.775 23.3215L130.613 25.16ZM137.333 20.6L138.363 22.9872C140.554 22.0417 142.921 21.56 145.493 21.56V18.96V16.36C142.251 16.36 139.179 16.9716 136.303 18.2128L137.333 20.6ZM145.493 18.96V21.56C147.663 21.56 149.457 22.0308 150.956 22.8936L152.253 20.64L153.55 18.3864C151.156 17.0092 148.443 16.36 145.493 16.36V18.96ZM152.253 20.64L150.98 22.9069C152.591 23.812 153.913 25.0039 154.969 26.4994L157.093 25L159.217 23.5006C157.713 21.3694 155.808 19.6546 153.526 18.3731L152.253 20.64ZM157.093 25H159.693V-3.8147e-06H157.093H154.493V25H157.093ZM145.613 51.64V54.24C148.149 54.24 150.49 53.5987 152.55 52.26L151.133 50.08L149.716 47.9C148.576 48.6413 147.237 49.04 145.613 49.04V51.64ZM151.133 50.08L152.55 52.26C154.544 50.9641 156.099 49.2169 157.204 47.0707L154.893 45.88L152.582 44.6893C151.874 46.0631 150.923 47.1159 149.716 47.9L151.133 50.08ZM154.893 45.88L157.212 47.0566C158.315 44.8818 158.853 42.515 158.853 40H156.253H153.653C153.653 41.7516 153.284 43.3048 152.575 44.7034L154.893 45.88ZM156.253 40H158.853C158.853 37.4642 158.318 35.0903 157.204 32.9293L154.893 34.12L152.582 35.3107C153.282 36.6697 153.653 38.2158 153.653 40H156.253ZM154.893 34.12L157.212 32.9434C156.103 30.7592 154.526 28.9891 152.494 27.6894L151.093 29.88L149.693 32.0706C150.913 32.8509 151.87 33.9075 152.575 35.2966L154.893 34.12ZM151.093 29.88L152.51 27.7C150.456 26.3649 148.129 25.72 145.613 25.72V28.32V30.92C147.203 30.92 148.53 31.3151 149.676 32.06L151.093 29.88ZM145.613 28.32V25.72C143.083 25.72 140.724 26.3848 138.595 27.7152L139.973 29.92L141.351 32.1248C142.636 31.3219 144.037 30.92 145.613 30.92V28.32ZM139.973 29.92L138.605 27.7093C136.548 28.9823 134.902 30.7005 133.68 32.8227L135.933 34.12L138.186 35.4173C138.991 34.0195 140.038 32.9377 141.342 32.1307L139.973 29.92ZM135.933 34.12L133.665 32.8486C132.445 35.0243 131.853 37.4272 131.853 40H134.453H137.053C137.053 38.2528 137.447 36.7357 138.201 35.3914L135.933 34.12ZM134.453 40H131.853C131.853 42.5853 132.465 44.9975 133.72 47.1773L135.973 45.88L138.226 44.5827C137.455 43.2425 137.053 41.7347 137.053 40H134.453ZM135.973 45.88L133.72 47.1773C134.942 49.2995 136.588 51.0177 138.645 52.2907L140.013 50.08L141.382 47.8693C140.078 47.0623 139.031 45.9805 138.226 44.5827L135.973 45.88ZM140.013 50.08L138.66 52.3002C140.78 53.5923 143.116 54.24 145.613 54.24V51.64V49.04C144.057 49.04 142.659 48.6477 141.366 47.8598L140.013 50.08Z" fill="#E8E0E0" mask="url(#path-1-inside-1_3420_550)"/>
<defs>
<filter id="filter0_i_3420_550" x="0" y="0" width="170.853" height="65.04" filterUnits="userSpaceOnUse" color-interpolation-filters="sRGB">
<feFlood flood-opacity="0" result="BackgroundImageFix"/>
<feBlend mode="normal" in="SourceGraphic" in2="BackgroundImageFix" result="shape"/>
<feColorMatrix in="SourceAlpha" type="matrix" values="0 0 0 0 0 0 0 0 0 0 0 0 0 0 0 0 0 0 127 0" result="hardAlpha"/>
<feOffset dx="4" dy="4"/>
<feGaussianBlur stdDeviation="2"/>
<feComposite in2="hardAlpha" operator="arithmetic" k2="-1" k3="1"/>
<feColorMatrix type="matrix" values="0 0 0 0 0.133333 0 0 0 0 0.168627 0 0 0 0 0.34902 0 0 0 0.63 0"/>
<feBlend mode="normal" in2="shape" result="effect1_innerShadow_3420_550"/>
</filter>
</defs>
</svg>
